<svg width="13" height="15" viewBox="0 0 13 15" fill="none" xmlns="http://www.w3.org/2000/svg">
<path d="M8.16397 5.43459C7.96994 5.43459 7.81268 5.59185 7.81268 5.78588V12.4252C7.81268 12.6191 7.96994 12.7765 8.16397 12.7765C8.358 12.7765 8.51525 12.6191 8.51525 12.4252V5.78588C8.51525 5.59185 8.358 5.43459 8.16397 5.43459Z" fill="black"/>
<path d="M4.01877 5.43459C3.82474 5.43459 3.66748 5.59185 3.66748 5.78588V12.4252C3.66748 12.6191 3.82474 12.7765 4.01877 12.7765C4.2128 12.7765 4.37005 12.6191 4.37005 12.4252V5.78588C4.37005 5.59185 4.2128 5.43459 4.01877 5.43459Z" fill="black"/>
<path fill-rule="evenodd" clip-rule="evenodd" d="M0.997709 13.1206V4.46563C0.346321 4.29273 -0.0757711 3.66344 0.0113643 2.99503C0.0986369 2.32677 0.667967 1.82687 1.342 1.82673H3.14055V1.38763C3.1385 1.01836 3.2845 0.663784 3.5459 0.402927C3.80731 0.142207 4.16244 -0.00297271 4.5317 4.61561e-05H7.65101C8.02027 -0.00297271 8.3754 0.142207 8.63681 0.402927C8.89821 0.663784 9.04422 1.01836 9.04216 1.38763V1.82673H10.8407C11.5147 1.82687 12.0841 2.32677 12.1713 2.99503C12.2585 3.66344 11.8364 4.29273 11.185 4.46563V13.1206C11.185 13.6321 10.9974 14.1125 10.6697 14.4572C10.3437 14.8029 9.88977 14.9991 9.41457 15H2.76814C2.29308 14.9991 1.83915 14.8029 1.51297 14.4572C1.18529 14.1125 0.997709 13.6321 0.997709 13.1206ZM2.76814 14.2974H9.41458C10.0152 14.2974 10.4824 13.7814 10.4824 13.1206V4.49651H1.70028V13.1206C1.70028 13.7814 2.16752 14.2974 2.76814 14.2974ZM3.84313 1.38763C3.84079 1.20471 3.9127 1.02866 4.04251 0.89953C4.17218 0.770405 4.34865 0.699462 4.5317 0.702618H7.65101C7.83406 0.699462 8.01053 0.770405 8.1402 0.89953C8.27001 1.02852 8.34192 1.20471 8.33959 1.38763V1.82673H3.84313V1.38763ZM10.8407 2.5293H1.342C0.992769 2.5293 0.709682 2.81239 0.709682 3.16162C0.709682 3.51085 0.992769 3.79393 1.342 3.79393H10.8407C11.1899 3.79393 11.473 3.51085 11.473 3.16162C11.473 2.81239 11.1899 2.5293 10.8407 2.5293Z" fill="black"/>
<path d="M6.09134 5.43459C5.89731 5.43459 5.74005 5.59185 5.74005 5.78588V12.4252C5.74005 12.6191 5.89731 12.7765 6.09134 12.7765C6.28537 12.7765 6.44262 12.6191 6.44262 12.4252V5.78588C6.44262 5.59185 6.28537 5.43459 6.09134 5.43459Z" fill="black"/>
</svg>
