<svg width="15" height="15" viewBox="0 0 15 15" fill="none" xmlns="http://www.w3.org/2000/svg">
<path d="M12.1586 6.50363C11.9159 6.50363 11.7191 6.7004 11.7191 6.9431V13.3886C11.7191 13.7925 11.3906 14.1211 10.9867 14.1211H1.61138C1.20751 14.1211 0.878935 13.7925 0.878935 13.3886V4.01332C0.878935 3.60945 1.20751 3.28087 1.61138 3.28087H8.0569C8.2996 3.28087 8.49637 3.08411 8.49637 2.84141C8.49637 2.5987 8.2996 2.40194 8.0569 2.40194H1.61138C0.722865 2.40194 0 3.1248 0 4.01332V13.3886C0 14.2771 0.722865 15 1.61138 15H10.9867C11.8752 15 12.5981 14.2771 12.5981 13.3886V6.9431C12.5981 6.7004 12.4013 6.50363 12.1586 6.50363Z" fill="black"/>
<path fill-rule="evenodd" clip-rule="evenodd" d="M14.7002 1.12854L13.8715 0.299849C13.4717 -0.0999495 12.8212 -0.0999495 12.4213 0.299849L5.792 6.92918C5.73065 6.99053 5.68885 7.06867 5.67179 7.15375L5.25744 9.22543C5.22864 9.36952 5.27372 9.51847 5.37764 9.62236C5.46088 9.70559 5.573 9.75109 5.68838 9.75109C5.71706 9.75109 5.74589 9.74828 5.77454 9.74257L7.84622 9.32821C7.9313 9.31118 8.00944 9.26935 8.07079 9.208L14.7002 2.57869L14.7002 2.57866C15.0999 2.17889 15.0999 1.52836 14.7002 1.12854ZM7.5434 8.49243L6.24861 8.75142L6.5076 7.45663L11.9034 2.06076L12.9392 3.09662L7.5434 8.49243ZM13.5607 2.47512L14.0787 1.9572C14.1358 1.9001 14.1358 1.80713 14.0786 1.75003L13.25 0.921343C13.1928 0.864212 13.0999 0.864242 13.0428 0.921372L12.5249 1.43927L13.5607 2.47512Z" fill="black"/>
</svg>
