<svg width="18" height="12" viewBox="0 0 18 12" fill="none" xmlns="http://www.w3.org/2000/svg">
<path d="M0.370098 6.6344L4.84732 11.1116C5.09409 11.3584 5.41747 11.4818 5.74089 11.4818C6.06431 11.4818 6.38769 11.3584 6.63446 11.1116C7.12792 10.6181 7.12792 9.81804 6.63446 9.32454L4.31441 7.00454H15.9549C16.6528 7.00454 17.2186 6.43877 17.2186 5.74088C17.2186 5.04298 16.6528 4.47722 15.9549 4.47722H4.31441L6.63446 2.15722C7.12792 1.66372 7.12792 0.863623 6.63446 0.370124C6.14092 -0.123375 5.34086 -0.123375 4.84732 0.370124L0.370098 4.84735C-0.123362 5.34081 -0.123362 6.14094 0.370098 6.6344Z" fill="black"/>
</svg>
