<svg width="15" height="15" viewBox="0 0 15 15" fill="none" xmlns="http://www.w3.org/2000/svg">
<path d="M13.4375 11.25H11.5625C11.39 11.25 11.25 11.11 11.25 10.9375C11.25 10.765 11.39 10.625 11.5625 10.625H13.4375C13.9544 10.625 14.375 10.2044 14.375 9.6875V5.3125C14.375 4.79562 13.9544 4.375 13.4375 4.375H1.5625C1.04562 4.375 0.625 4.79562 0.625 5.3125V9.6875C0.625 10.2044 1.04562 10.625 1.5625 10.625H3.4375C3.61 10.625 3.75 10.765 3.75 10.9375C3.75 11.11 3.61 11.25 3.4375 11.25H1.5625C0.700625 11.25 0 10.5487 0 9.6875V5.3125C0 4.45125 0.700625 3.75 1.5625 3.75H13.4375C14.2994 3.75 15 4.45125 15 5.3125V9.6875C15 10.5487 14.2994 11.25 13.4375 11.25Z" fill="black"/>
<path d="M9.0625 13.125H5.3125C5.14 13.125 5 12.985 5 12.8125C5 12.64 5.14 12.5 5.3125 12.5H9.0625C9.235 12.5 9.375 12.64 9.375 12.8125C9.375 12.985 9.235 13.125 9.0625 13.125Z" fill="black"/>
<path d="M9.0625 11.875H5.3125C5.14 11.875 5 11.735 5 11.5625C5 11.39 5.14 11.25 5.3125 11.25H9.0625C9.235 11.25 9.375 11.39 9.375 11.5625C9.375 11.735 9.235 11.875 9.0625 11.875Z" fill="black"/>
<path d="M6.5625 10.625H5.3125C5.14 10.625 5 10.485 5 10.3125C5 10.14 5.14 10 5.3125 10H6.5625C6.735 10 6.875 10.14 6.875 10.3125C6.875 10.485 6.735 10.625 6.5625 10.625Z" fill="black"/>
<path d="M11.5625 4.375C11.39 4.375 11.25 4.235 11.25 4.0625V1.5625C11.25 1.04562 10.8294 0.625 10.3125 0.625H4.6875C4.17062 0.625 3.75 1.04562 3.75 1.5625V4.0625C3.75 4.235 3.61 4.375 3.4375 4.375C3.265 4.375 3.125 4.235 3.125 4.0625V1.5625C3.125 0.70125 3.82563 0 4.6875 0H10.3125C11.1744 0 11.875 0.70125 11.875 1.5625V4.0625C11.875 4.235 11.735 4.375 11.5625 4.375Z" fill="black"/>
<path fill-rule="evenodd" clip-rule="evenodd" d="M4.6875 15H10.3125C11.1744 15 11.875 14.2987 11.875 13.4375V8.4375C11.875 8.265 11.735 8.125 11.5625 8.125H3.4375C3.265 8.125 3.125 8.265 3.125 8.4375V13.4375C3.125 14.2987 3.82563 15 4.6875 15ZM3.75 13.4375V8.75H11.25V13.4375C11.25 13.9544 10.8294 14.375 10.3125 14.375H4.6875C4.17062 14.375 3.75 13.9544 3.75 13.4375Z" fill="black"/>
</svg>
