<svg width="15" height="15" viewBox="0 0 15 15" fill="none" xmlns="http://www.w3.org/2000/svg">
<path d="M7.32422 5.27344C7.48592 5.27344 7.61719 5.14217 7.61719 4.98047C7.61719 4.81876 7.48592 4.6875 7.32422 4.6875C7.16251 4.6875 7.03125 4.81876 7.03125 4.98047C7.03125 5.14217 7.16251 5.27344 7.32422 5.27344Z" fill="black"/>
<path d="M7.32422 6.44531C7.48592 6.44531 7.61719 6.31405 7.61719 6.15234C7.61719 5.99064 7.48592 5.85938 7.32422 5.85938C7.16251 5.85938 7.03125 5.99064 7.03125 6.15234C7.03125 6.31405 7.16251 6.44531 7.32422 6.44531Z" fill="black"/>
<path fill-rule="evenodd" clip-rule="evenodd" d="M14.9142 3.01552L11.9845 0.0858307C11.9326 0.0338745 11.8573 0 11.7773 0H4.39453C3.90987 0 3.51562 0.394249 3.51562 0.878906V1.77132C3.41835 1.7625 3.3205 1.75781 3.22266 1.75781C1.44573 1.75781 0 3.20354 0 4.98047C0 6.75739 1.44573 8.20312 3.22266 8.20312C3.3205 8.20312 3.41835 8.19843 3.51562 8.18962V14.1211C3.51562 14.6058 3.90987 15 4.39453 15H14.1211C14.6058 15 15 14.6058 15 14.1211V3.22266C15 3.14266 14.9667 3.06805 14.9142 3.01552ZM12.0703 1.00021L13.9998 2.92969H12.0703V1.00021ZM5.84244 4.6875C5.70717 3.48301 4.75273 2.49664 3.51562 2.36012V4.6875H5.84244ZM0.585938 4.98047C0.585938 3.6256 1.61316 2.50637 2.92969 2.36012V4.98047C2.92969 5.14229 3.06084 5.27309 3.22266 5.27309H5.84244C5.69527 6.58367 4.58645 7.61719 3.22266 7.61719C1.7688 7.61719 0.585938 6.43433 0.585938 4.98047ZM4.39453 14.4141H14.1211C14.2827 14.4141 14.4141 14.2827 14.4141 14.1211V3.51562H11.7773C11.6155 3.51562 11.4844 3.38448 11.4844 3.22266V0.585938H4.39453C4.23294 0.585938 4.10156 0.717316 4.10156 0.878906V1.87981C5.47302 2.26799 6.44531 3.53485 6.44531 4.98047C6.44531 6.42609 5.47302 7.69295 4.10156 8.08113V14.1211C4.10156 14.2827 4.23294 14.4141 4.39453 14.4141Z" fill="black"/>
<path d="M7.5 2.34375H10.6055C10.7673 2.34375 10.8984 2.2126 10.8984 2.05078C10.8984 1.88896 10.7673 1.75781 10.6055 1.75781H7.5C7.33818 1.75781 7.20703 1.88896 7.20703 2.05078C7.20703 2.2126 7.33818 2.34375 7.5 2.34375Z" fill="black"/>
<path d="M7.5 3.51562H10.6055C10.7673 3.51562 10.8984 3.38448 10.8984 3.22266C10.8984 3.06084 10.7673 2.92969 10.6055 2.92969H7.5C7.33818 2.92969 7.20703 3.06084 7.20703 3.22266C7.20703 3.38448 7.33818 3.51562 7.5 3.51562Z" fill="black"/>
<path d="M3.22266 6.44531C2.41493 6.44531 1.75781 5.78819 1.75781 4.98047C1.75781 4.81865 1.62666 4.6875 1.46484 4.6875C1.30302 4.6875 1.17188 4.81865 1.17188 4.98047C1.17188 6.11126 2.09187 7.03125 3.22266 7.03125C3.38448 7.03125 3.51562 6.9001 3.51562 6.73828C3.51562 6.57646 3.38448 6.44531 3.22266 6.44531Z" fill="black"/>
<path fill-rule="evenodd" clip-rule="evenodd" d="M12.8613 7.79297C12.3767 7.79297 11.9824 8.18722 11.9824 8.67188C11.9824 8.85349 12.0378 9.02252 12.1326 9.16271L10.0982 11.3462C10.0176 11.3219 9.93221 11.3086 9.84375 11.3086C9.72015 11.3086 9.60056 11.3342 9.4907 11.3824L8.57437 10.2465C8.638 10.1234 8.67188 9.98623 8.67188 9.84375C8.67188 9.35909 8.27763 8.96484 7.79297 8.96484C7.30831 8.96484 6.91406 9.35909 6.91406 9.84375C6.91406 9.98062 6.94542 10.1126 7.00424 10.2318L5.93594 11.3897C5.82161 11.3366 5.69618 11.3086 5.56641 11.3086C5.08175 11.3086 4.6875 11.7028 4.6875 12.1875C4.6875 12.6722 5.08175 13.0664 5.56641 13.0664C6.05106 13.0664 6.44531 12.6722 6.44531 12.1875C6.44531 12.0506 6.41407 11.9187 6.35513 11.7994L7.42344 10.6415C7.53777 10.6946 7.66319 10.7227 7.79297 10.7227C7.91656 10.7227 8.03616 10.697 8.14602 10.6488L9.06235 11.7848C8.99872 11.9078 8.96484 12.045 8.96484 12.1875C8.96484 12.6722 9.35909 13.0664 9.84375 13.0664C10.3284 13.0664 10.7227 12.6722 10.7227 12.1875C10.7227 12.0059 10.6673 11.8369 10.5725 11.6967L12.6069 9.51313C12.6875 9.53751 12.7729 9.55078 12.8613 9.55078C13.346 9.55078 13.7402 9.15653 13.7402 8.67188C13.7402 8.18722 13.346 7.79297 12.8613 7.79297ZM5.56641 12.4805C5.40482 12.4805 5.27344 12.3491 5.27344 12.1875C5.27344 12.0259 5.40482 11.8945 5.56641 11.8945C5.72811 11.8945 5.85938 12.0257 5.85938 12.1875C5.85938 12.3491 5.728 12.4805 5.56641 12.4805ZM7.79297 9.55078C7.63138 9.55078 7.5 9.68216 7.5 9.84375C7.5 10.0055 7.63115 10.1367 7.79297 10.1367C7.95479 10.1367 8.08594 10.0055 8.08594 9.84375C8.08594 9.68216 7.95456 9.55078 7.79297 9.55078ZM9.84375 12.4805C9.68216 12.4805 9.55078 12.3491 9.55078 12.1875C9.55078 12.0258 9.68193 11.8945 9.84375 11.8945C10.0053 11.8945 10.1367 12.0259 10.1367 12.1875C10.1367 12.3491 10.0053 12.4805 9.84375 12.4805ZM12.5684 8.67188C12.5684 8.83347 12.6997 8.96484 12.8613 8.96484C13.0229 8.96484 13.1543 8.83347 13.1543 8.67188C13.1543 8.51028 13.0229 8.37891 12.8613 8.37891C12.6997 8.37891 12.5684 8.51028 12.5684 8.67188Z" fill="black"/>
<path d="M8.20312 4.98047C8.20312 5.14229 8.33427 5.27344 8.49609 5.27344H12.9492C13.111 5.27344 13.2422 5.14229 13.2422 4.98047C13.2422 4.81865 13.111 4.6875 12.9492 4.6875H8.49609C8.33427 4.6875 8.20312 4.81865 8.20312 4.98047Z" fill="black"/>
<path d="M12.9492 5.85938H8.49609C8.33427 5.85938 8.20312 5.99052 8.20312 6.15234C8.20312 6.31416 8.33427 6.44531 8.49609 6.44531H12.9492C13.111 6.44531 13.2422 6.31416 13.2422 6.15234C13.2422 5.99052 13.111 5.85938 12.9492 5.85938Z" fill="black"/>
</svg>
