<svg width="15" height="15" viewBox="0 0 15 15" fill="none" xmlns="http://www.w3.org/2000/svg">
<path fill-rule="evenodd" clip-rule="evenodd" d="M11.1345 15H0.245075C0.101138 15 0 14.867 0 14.723V0.277047C0 0.132982 0.101138 0 0.245075 0H8.49457C8.56373 0.00280231 8.62882 0.0332456 8.67544 0.0844514L11.3114 2.73225C11.3583 2.78206 11.3832 2.84855 11.3804 2.91682V5.56564L13.1078 3.84872C13.2123 3.74707 13.3787 3.7472 13.4831 3.84897L14.8705 5.23815C14.9712 5.34095 14.9697 5.5059 14.867 5.60678L11.3804 9.09362V14.7228C11.3804 14.867 11.2785 15 11.1345 15ZM9.37704 10.1498L8.57328 9.34609L8.16962 10.5535L9.37704 10.1498ZM9.85942 9.89432L8.82868 8.86371L12.139 5.5608L13.1623 6.58415L9.85942 9.89432ZM14.3209 5.42285L13.3003 4.40217L12.5084 5.1923L13.5307 6.21489L14.3209 5.42285ZM8.77174 0.906802L10.5047 2.6413H8.77174V0.906802ZM8.25 0.521739H0.521739V14.4783H10.8587V9.61651L10.037 10.4448C10.011 10.4724 9.97839 10.4931 9.94234 10.505L7.89169 11.1848H9.15336C9.29755 11.1848 9.41423 11.3016 9.41423 11.4457C9.41423 11.5897 9.29755 11.7065 9.15336 11.7065H2.20758C2.06352 11.7065 1.94671 11.5897 1.94671 11.4457C1.94671 11.3016 2.06352 11.1848 2.20758 11.1848H7.63324C7.61371 11.1848 7.59518 11.1659 7.57846 11.1488C7.57631 11.1466 7.57419 11.1445 7.5721 11.1424C7.50229 11.0737 7.47784 10.971 7.50917 10.8783L7.66636 10.4022H2.20758C2.06352 10.4022 1.94671 10.2854 1.94671 10.1413C1.94671 9.99724 2.06352 9.88043 2.20758 9.88043H7.84061L8.20848 8.7748C8.22007 8.73837 8.24045 8.70538 8.26783 8.67863L10.8587 6.08623V3.16304H8.49457C8.42858 3.16572 8.36464 3.14062 8.31815 3.09375C8.27153 3.047 8.24694 2.9828 8.25 2.91682V0.521739Z" fill="black"/>
</svg>
