<svg width="15" height="15" viewBox="0 0 15 15" fill="none" xmlns="http://www.w3.org/2000/svg">
<path d="M7.16897 7.51933C3.21605 7.51933 0 10.7354 0 14.6883C0 14.8604 0.139649 15 0.311704 15C0.48376 15 0.623409 14.8604 0.623409 14.6883C0.623409 11.0789 3.55957 8.14271 7.16899 8.14271C10.7784 8.14271 13.7146 11.0789 13.7146 14.6883C13.7146 14.8604 13.8542 15 14.0263 15C14.1983 15 14.338 14.8604 14.338 14.6883C14.338 10.7348 11.1219 7.51933 7.16897 7.51933Z" fill="black"/>
<path fill-rule="evenodd" clip-rule="evenodd" d="M3.74036 3.42863C3.74036 1.53789 5.27886 0 7.16899 0C9.05911 0 10.5976 1.53789 10.5976 3.42863C10.5976 5.31937 9.05908 6.85726 7.16899 6.85726C5.27889 6.85726 3.74036 5.31937 3.74036 3.42863ZM4.36374 3.42863C4.36374 4.97526 5.62236 6.23388 7.16899 6.23388C8.71562 6.23388 9.97424 4.97526 9.97424 3.42863C9.97424 1.882 8.71562 0.623379 7.16899 0.623379C5.62236 0.623379 4.36374 1.882 4.36374 3.42863Z" fill="black"/>
</svg>
